<svg width="833" height="748" viewBox="0 0 833 748" fill="none" xmlns="http://www.w3.org/2000/svg">
<path d="M442.249 563.671H438.556L449.238 534.58H452.874L463.556 563.671H459.863L451.17 539.182H450.942L442.249 563.671ZM443.613 552.307H458.499V555.432H443.613V552.307Z" fill="black"/>
<path d="M655.54 563.671H651.847L662.529 534.58H666.165L676.847 563.671H673.154L664.461 539.182H664.233L655.54 563.671ZM656.904 552.307H671.79V555.432H656.904V552.307Z" fill="black"/>
<path d="M500.606 534.58H504.129V553.841C504.129 555.83 503.66 557.606 502.722 559.168C501.794 560.721 500.483 561.947 498.788 562.847C497.093 563.737 495.104 564.182 492.822 564.182C490.54 564.182 488.551 563.737 486.856 562.847C485.161 561.947 483.844 560.721 482.907 559.168C481.979 557.606 481.515 555.83 481.515 553.841V534.58H485.038V553.557C485.038 554.978 485.35 556.242 485.975 557.35C486.6 558.448 487.49 559.315 488.646 559.949C489.81 560.574 491.202 560.887 492.822 560.887C494.441 560.887 495.833 560.574 496.998 559.949C498.163 559.315 499.053 558.448 499.668 557.35C500.293 556.242 500.606 554.978 500.606 553.557V534.58Z" fill="black"/>
<path d="M522.381 537.705V534.58H544.199V537.705H535.051V563.671H531.529V537.705H522.381Z" fill="black"/>
<path d="M586.976 549.125C586.976 552.194 586.422 554.845 585.314 557.08C584.206 559.315 582.687 561.038 580.755 562.25C578.823 563.463 576.617 564.069 574.135 564.069C571.654 564.069 569.448 563.463 567.516 562.25C565.584 561.038 564.064 559.315 562.956 557.08C561.849 554.845 561.295 552.194 561.295 549.125C561.295 546.057 561.849 543.406 562.956 541.171C564.064 538.936 565.584 537.213 567.516 536C569.448 534.788 571.654 534.182 574.135 534.182C576.617 534.182 578.823 534.788 580.755 536C582.687 537.213 584.206 538.936 585.314 541.171C586.422 543.406 586.976 546.057 586.976 549.125ZM583.567 549.125C583.567 546.607 583.146 544.481 582.303 542.748C581.47 541.015 580.338 539.703 578.908 538.813C577.488 537.923 575.897 537.478 574.135 537.478C572.374 537.478 570.778 537.923 569.349 538.813C567.928 539.703 566.796 541.015 565.954 542.748C565.12 544.481 564.704 546.607 564.704 549.125C564.704 551.644 565.12 553.77 565.954 555.503C566.796 557.236 567.928 558.548 569.349 559.438C570.778 560.328 572.374 560.773 574.135 560.773C575.897 560.773 577.488 560.328 578.908 559.438C580.338 558.548 581.47 557.236 582.303 555.503C583.146 553.77 583.567 551.644 583.567 549.125Z" fill="black"/>
<path d="M781.265 549.125C781.265 552.194 780.711 554.845 779.604 557.08C778.496 559.315 776.976 561.038 775.044 562.25C773.112 563.463 770.906 564.069 768.425 564.069C765.943 564.069 763.737 563.463 761.805 562.25C759.873 561.038 758.354 559.315 757.246 557.08C756.138 554.845 755.584 552.194 755.584 549.125C755.584 546.057 756.138 543.406 757.246 541.171C758.354 538.936 759.873 537.213 761.805 536C763.737 534.788 765.943 534.182 768.425 534.182C770.906 534.182 773.112 534.788 775.044 536C776.976 537.213 778.496 538.936 779.604 541.171C780.711 543.406 781.265 546.057 781.265 549.125ZM777.856 549.125C777.856 546.607 777.435 544.481 776.592 542.748C775.759 541.015 774.627 539.703 773.197 538.813C771.777 537.923 770.186 537.478 768.425 537.478C766.663 537.478 765.068 537.923 763.638 538.813C762.217 539.703 761.086 541.015 760.243 542.748C759.409 544.481 758.993 546.607 758.993 549.125C758.993 551.644 759.409 553.77 760.243 555.503C761.086 557.236 762.217 558.548 763.638 559.438C765.068 560.328 766.663 560.773 768.425 560.773C770.186 560.773 771.777 560.328 773.197 559.438C774.627 558.548 775.759 557.236 776.592 555.503C777.435 553.77 777.856 551.644 777.856 549.125Z" fill="black"/>
<path d="M823.247 534.58V563.671H819.838L803.986 540.83H803.702V563.671H800.179V534.58H803.588L819.497 557.478H819.781V534.58H823.247Z" fill="black"/>
<path d="M605.888 534.58H610.093L619.979 558.728H620.32L630.206 534.58H634.411V563.671H631.115V541.569H630.831L621.74 563.671H618.558L609.468 541.569H609.183V563.671H605.888V534.58Z" fill="black"/>
<path d="M693.213 537.705V534.58H715.031V537.705H705.884V563.671H702.361V537.705H693.213Z" fill="black"/>
<path d="M736.786 534.58V563.671H733.263V534.58H736.786Z" fill="black"/>
<path d="M277.313 299.097C277.313 299.097 218.258 316.854 209.74 319.095C201.97 300.587 169.618 280.667 142.628 301.692C130.908 331.245 190.95 328.419 218.142 340.512C248.592 349.469 280.874 359.022 284.239 420.08C278.345 525.122 136.802 511.705 107.952 498.044C84.1567 486.775 80.4048 481.367 66.1137 466.674C51.8225 451.98 46.7443 425.956 46.7443 425.956L121.725 412.392C121.725 412.392 126.723 425.034 132.517 431.279C139.445 437.26 145.521 440.372 150.134 442.062C157.244 443.7 167.071 444.681 171.002 444.38C174.933 444.079 191.074 443.042 196.361 438.664C200.466 434.023 200.574 432.055 200.987 427.842C201.4 423.629 198.013 417.351 193.057 414.295C188.246 412.172 179.241 409.358 171.002 407.533C162.763 405.707 114.335 394.913 107.952 390.746C101.57 386.58 96.9538 386.185 81.7495 372.937C66.5451 359.689 62.0995 341.456 60.2552 328.31C58.4109 315.165 64.3776 286.532 72.5377 276.315C80.6978 266.097 84.9948 259.247 92.1893 254.82C99.3838 250.394 116.305 240.527 129.466 238.267C142.628 236.006 162.197 234.641 169.752 234.641C177.306 234.641 207.93 236.14 213.663 238.267C219.396 240.393 248.721 254.82 256.365 264.452C265.547 274.223 277.313 299.097 277.313 299.097Z" fill="#BF2734"/>
<path d="M324.733 503.805L324.733 238.396L401.547 238.396L484.314 380.561L484.314 238.396L550.332 238.396L550.332 503.805L484.314 503.805L390.754 342.607L390.754 503.805L324.733 503.805Z" fill="#BF2734"/>
<path d="M607.337 504.575L607.337 239.165L684.152 239.165L766.918 381.331L766.918 239.165L832.937 239.165L832.937 504.575L766.918 504.575L673.358 343.377L673.358 504.575L607.337 504.575Z" fill="#BF2734"/>
<path d="M551.148 129.142C491.037 41.4584 296.076 202.123 296.076 202.123C293.343 189.866 517.548 19.1895 575.574 125.869C591.184 159.698 569.206 204.051 569.206 204.051L542.497 204.051C542.497 204.051 574.055 165.537 551.148 129.142Z" fill="#BF2734"/>
<path d="M595.806 125.869C535.789 2.07636 295.359 204.051 295.359 204.051C292.626 191.794 559.645 -56.6482 622.19 124.106C633.559 156.964 615.193 204.051 615.193 204.051L586.569 204.051C586.569 204.051 607.077 153.965 595.806 125.869Z" fill="#BF2734"/>
<path d="M103.229 536.395C103.229 536.395 103.168 536.627 103.063 537.067C98.7443 553.476 45.2015 704.918 264.789 607.213C319.608 579.954 355.708 533.868 355.708 533.868L321.97 533.868C321.97 533.868 295.026 559.608 264.789 580.726C68.3982 695.097 100.372 548.302 103.063 537.067C103.131 536.809 103.186 536.584 103.229 536.395Z" fill="#BF2734"/>
<path d="M311.021 591.385C57.0735 721.298 102.566 537.421 102.566 537.421C90.7738 552.649 31.5987 678.083 235.869 643.115C382.283 598.925 419.297 533.864 419.297 533.864L382.283 533.864C382.283 533.864 364.775 562.879 311.021 591.385Z" fill="#BF2734"/>
</svg>
