<svg width="229" height="197" viewBox="0 0 229 197" fill="none" xmlns="http://www.w3.org/2000/svg">
<path d="M56.8569 1.10278L1.729 99.4685L25.1352 143.125L64.7837 1.10278H56.8569Z" fill="#008FD5"/>
<path d="M103.623 1.10278H77.4146L37.5276 150.855H64.7837L84.0998 80.2842H113.801V85.5117L99.307 99.4685L142.553 80.2842L162.512 1.10278H136.675L120.275 56.2763L89.7948 55.3351L103.623 1.10278Z" fill="#008FD5"/>
<path d="M52.7467 191.992L37.5276 166.215H60.2252L52.7467 191.992Z" fill="#008FD5"/>
<path d="M56.8569 1.10278L1.729 99.4685L25.1352 143.125L64.7837 1.10278H56.8569Z" stroke="#0B2346" stroke-width="2"/>
<path d="M103.623 1.10278H77.4146L37.5276 150.855H64.7837L84.0998 80.2842H113.801V85.5117L99.307 99.4685L142.553 80.2842L162.512 1.10278H136.675L120.275 56.2763L89.7948 55.3351L103.623 1.10278Z" stroke="#0B2346" stroke-width="2"/>
<path d="M52.7467 191.992L37.5276 166.215H60.2252L52.7467 191.992Z" stroke="#0B2346" stroke-width="2"/>
<path d="M166.664 35.1982L174.3 9.49874L190.457 35.1982H166.664Z" fill="#1876D0"/>
<path d="M145.26 119.759L164.757 47.0892H190.457L150.327 195.981H125.063L139.485 143.799H106.78L93.825 195.981H67.3164L86.0767 119.759L129.706 100.05L112.027 119.759H145.26Z" fill="#1876D0"/>
<path d="M166.008 195.981L202.639 58.3504L226.873 100.05L172.355 195.981H166.008Z" fill="#1876D0"/>
<path d="M166.664 35.1982L174.3 9.49874L190.457 35.1982H166.664Z" stroke="#0B2346" stroke-width="2"/>
<path d="M145.26 119.759L164.757 47.0892H190.457L150.327 195.981H125.063L139.485 143.799H106.78L93.825 195.981H67.3164L86.0767 119.759L129.706 100.05L112.027 119.759H145.26Z" stroke="#0B2346" stroke-width="2"/>
<path d="M166.008 195.981L202.639 58.3504L226.873 100.05L172.355 195.981H166.008Z" stroke="#0B2346" stroke-width="2"/>
</svg>
